<svg xmlns="http://www.w3.org/2000/svg" data-name="Layer 1" viewBox="0 0 96 120" x="0px" y="0px"><path d="M16.15,59.8h.058v4.485a1.3,1.3,0,0,1-2.6,0v-4.7A15.373,15.373,0,0,0,16.15,59.8Zm63.642,4.485a1.3,1.3,0,0,0,2.6,0v-4.7a15.373,15.373,0,0,1-2.546.216h-.058ZM63.228,65.5a1.3,1.3,0,0,0,1.3-1.3V59.8h-2.6v4.394A1.3,1.3,0,0,0,63.228,65.5Zm-30.456,0a1.3,1.3,0,0,0,1.3-1.3V59.8h-2.6v4.394A1.3,1.3,0,0,0,32.772,65.5Zm6.238,4.393a1.3,1.3,0,0,0,1.3-1.3V59.8h-2.6v8.787A1.3,1.3,0,0,0,39.01,69.889Zm17.98,0a1.3,1.3,0,0,0,1.3-1.3V59.8h-2.6v8.787A1.3,1.3,0,0,0,56.99,69.889Zm31.084-1.6a4.3,4.3,0,0,0-4.085,2.987H79.683l-3.8-4.691V59.8h-2.6v7.248a1.3,1.3,0,0,0,.29.82L78.051,73.4a1.3,1.3,0,0,0,1.012.483h4.926a4.288,4.288,0,1,0,4.085-5.591Zm-20.4,9.152L58.711,86.4a4.3,4.3,0,1,0,1.841,1.842L69.894,78.9a1.3,1.3,0,0,0,.382-.921V59.8h-2.6ZM49.3,70.72V59.8H46.7V70.72a4.288,4.288,0,1,0,2.6,0Zm-10.046,15.2a4.258,4.258,0,0,0-1.967.48l-8.96-8.96V59.8H25.724V77.982a1.306,1.306,0,0,0,.382.921l9.342,9.341a4.287,4.287,0,1,0,3.808-2.321ZM20.118,66.587l-3.8,4.691H12.011a4.288,4.288,0,1,0,0,2.6h4.926a1.3,1.3,0,0,0,1.012-.483l4.483-5.531a1.309,1.309,0,0,0,.29-.82V59.8h-2.6Zm-3.968-9.4h63.7a12.644,12.644,0,0,0,3.2-24.877,1.3,1.3,0,0,1-.964-1.383A12.788,12.788,0,0,0,70.156,16.933a1.3,1.3,0,0,1-1.22-1.226A15.074,15.074,0,0,0,41.659,7.759a1.3,1.3,0,0,1-1.719.358A17.343,17.343,0,0,0,15.329,30.2a1.3,1.3,0,0,1-1,1.827A12.645,12.645,0,0,0,16.15,57.186Z"/></svg>